<svg width="64" height="64" viewBox="0 0 64 64" fill="none" xmlns="http://www.w3.org/2000/svg">
<circle cx="32" cy="32" r="32" transform="matrix(-1 0 0 1 64 0)" fill="#FF732B"/>
<path d="M23.3328 31.0635L34.0131 20.3834C34.2602 20.1362 34.5899 20 34.9415 20C35.2931 20 35.6229 20.1362 35.8699 20.3834L36.6564 21.1697C37.1682 21.6821 37.1682 22.5149 36.6564 23.0265L27.6879 31.995L36.6664 40.9735C36.9134 41.2207 37.0498 41.5503 37.0498 41.9017C37.0498 42.2535 36.9134 42.583 36.6664 42.8305L35.8799 43.6166C35.6326 43.8638 35.3031 44 34.9515 44C34.5999 44 34.2701 43.8638 34.0231 43.6166L23.3328 32.9267C23.0852 32.6787 22.9492 32.3476 22.95 31.9956C22.9492 31.6422 23.0852 31.3113 23.3328 31.0635Z" fill="white"/>
</svg>
